PathFileType	4	(X/Y/Z)	D:\Share\Shared_Data\Ergonomics\Sit To Stand Pertubation\S3\Unperturbed.trc
DataRate	CameraRate	NumFrames	NumMarkers	Units	OrigDataRate	OrigDataStartFrame	OrigNumFrames	
100	100	9	18	m	100	5807	251
Frame#	Time	R_Thigh			R_ASIS			R_Pelvis			V_Sacral			L_Pelvis			L_ASIS			Clavical			R_Acromium			L_Acromium			Sternum			Torso			R_Thigh_Med			R_Thigh_Lat			R_Shank_Med			R_Shank_Lat			R_Shank			R_Heel			R_Toe			
		X1	Y1	Z1	X2	Y2	Z2	X3	Y3	Z3	X4	Y4	Z4	X5	Y5	Z5	X6	Y6	Z6	X7	Y7	Z7	X8	Y8	Z8	X9	Y9	Z9	X10	Y10	Z10	X11	Y11	Z11	X12	Y12	Z12	X13	Y13	Z13	X14	Y14	Z14	X15	Y15	Z15	X16	Y16	Z16	X17	Y17	Z17	X18	Y18	Z18	

5807	58.06	0.31851389	0.63007825	0.12425787	0.22320493	0.74019952	0.14252953	0.13539841	0.80157013	0.20045612	0.048719376	0.86732739	0.0016924345	0.14926694	0.81135663	-0.1986642	0.22764034	0.73887012	-0.13773532	0.44722882	1.0851083	-0.00015175904	0.43860574	1.1579078	0.16579398	0.4367059	1.1561272	-0.15202074	0.42921628	1.0020388	0.0053233361	0.44238397	1.0666163	-0.062230316	0.42269092	0.4432933	0.093123817	0.39002271	0.42455988	0.2026945	0.26580643	0.10594127	0.093627754	0.23879094	0.093183769	0.16959593	0.2961886	0.2652695	0.20118866	0.18204234	0.052645573	0.11952446	0.40097186	0.053225758	0.14174892
5808	58.07	0.32171478	0.63264307	0.12416119	0.22736899	0.74815747	0.1423558	0.1392227	0.80882391	0.20011508	0.052667358	0.87469489	0.0014675013	0.15312056	0.81863135	-0.19876639	0.23170833	0.74674194	-0.1375602	0.44926929	1.0954731	-0.00021504761	0.43999286	1.1682246	0.16576479	0.43807761	1.16637	-0.1521362	0.43168958	1.0122614	0.0052459545	0.44445367	1.0769586	-0.062365288	0.42138892	0.44356406	0.092287598	0.38903714	0.4254787	0.20190077	0.26562988	0.1061068	0.093345062	0.23879419	0.092944153	0.16950557	0.29560663	0.26582483	0.20091273	0.18206505	0.052747524	0.11958408	0.40097552	0.053230709	0.14175822
5809	58.08	0.3248349	0.63519165	0.12410914	0.23156342	0.75618793	0.14215289	0.14308328	0.81606061	0.19977759	0.056589489	0.88199658	0.0012338692	0.15697336	0.82591144	-0.19886111	0.23583565	0.75467975	-0.13752637	0.45111615	1.1060206	-0.00026101762	0.44112277	1.1787354	0.16576187	0.43923346	1.1767644	-0.15222276	0.43402927	1.022674	0.0051646757	0.44636703	1.0874894	-0.062493301	0.41989398	0.44414764	0.091729286	0.38787527	0.42645578	0.20115865	0.26545203	0.10626913	0.093110153	0.23874773	0.09286554	0.16952466	0.29491467	0.26640753	0.20065883	0.1820798	0.052840248	0.11964469	0.40097202	0.053235828	0.14177135
5810	58.09	0.32788431	0.63771179	0.12411384	0.235787	0.76426605	0.14192879	0.14697946	0.82326398	0.19943773	0.060492203	0.88921277	0.00096821135	0.16083229	0.83318201	-0.19894701	0.24004323	0.76266193	-0.13759273	0.45276678	1.1167266	-0.00029253289	0.44199344	1.189408	0.16578282	0.44015204	1.187293	-0.15229626	0.43622583	1.0332466	0.0050536237	0.44812646	1.0981858	-0.062615662	0.41825717	0.44498193	0.091395859	0.38655469	0.4274834	0.20045782	0.26528452	0.10641591	0.092947563	0.23866359	0.092909821	0.16962273	0.29412268	0.26701538	0.20041457	0.1820894	0.052925217	0.11970564	0.40096323	0.053241089	0.14178873
5811	58.1	0.33087402	0.64019141	0.1241816	0.2400376	0.77236786	0.14169319	0.15090511	0.83041736	0.1990876	0.064380859	0.89632727	0.00065221274	0.1647011	0.84042657	-0.19902489	0.24434676	0.77066766	-0.13772401	0.45421756	1.1275662	-0.00031237453	0.4426058	1.200208	0.16582491	0.44082779	1.1979373	-0.15236661	0.43828864	1.0439592	0.0049122276	0.44972745	1.1090239	-0.062733807	0.41652701	0.44599628	0.091216568	0.38509424	0.42855319	0.19977678	0.26513449	0.10654077	0.092862869	0.23855214	0.093051331	0.16977667	0.29323947	0.26764651	0.20016367	0.18209628	0.053002567	0.11976477	0.40095126	0.053246723	0.14181023
5812	58.11	0.33381461	0.64262097	0.12431244	0.24431604	0.78047113	0.14145432	0.15485097	0.83750134	0.19871776	0.068260506	0.90332544	0.00028520221	0.16858081	0.84762561	-0.19909827	0.24875401	0.77867694	-0.13789227	0.45546426	1.1385146	-0.00032291996	0.44296304	1.2111007	0.16588618	0.44126651	1.2086766	-0.15243753	0.44024088	1.0547988	0.0047619085	0.45116098	1.1199797	-0.062848927	0.41474524	0.44712192	0.091118088	0.38351205	0.42965656	0.1990873	0.26500522	0.10664328	0.092845001	0.23842198	0.093282387	0.16997334	0.29227322	0.26829883	0.19988905	0.18210236	0.053072235	0.119819	0.40093835	0.05325293	0.14183495
5813	58.12	0.33671426	0.64499445	0.12449988	0.24863078	0.78855627	0.14121835	0.15880806	0.84449402	0.19831891	0.072136955	0.91019275	-0.00010853152	0.17247305	0.85475763	-0.19917091	0.25326437	0.78667126	-0.13807664	0.45650293	1.1495448	-0.0003260594	0.4430701	1.2220499	0.1659653	0.44147302	1.2194883	-0.15250941	0.4420965	1.0657498	0.0046259866	0.45241614	1.1310273	-0.062961758	0.41294409	0.44829572	0.091033752	0.38182449	0.43078589	0.19836057	0.26489771	0.10672594	0.092875465	0.23828157	0.093606911	0.1702072	0.29123273	0.26897052	0.1995759	0.1821091	0.053135155	0.1198653	0.40092673	0.053259731	0.14186111
5814	58.13	0.33957971	0.64730792	0.12473151	0.25300076	0.79660547	0.14098976	0.16277078	0.85137207	0.19788461	0.076016029	0.91691461	-0.00048998696	0.17638467	0.86180066	-0.19924438	0.25787109	0.7946347	-0.1382635	0.45733081	1.1606292	-0.00032331446	0.44293304	1.233019	0.16606033	0.44144479	1.2303472	-0.15258223	0.44384058	1.0767844	0.0045104995	0.45348257	1.1421398	-0.063072258	0.41114523	0.44946222	0.09090712	0.38004697	0.43193472	0.19757101	0.26481134	0.10679227	0.092933647	0.23814275	0.094025291	0.17047493	0.29012857	0.26966101	0.19921233	0.18211781	0.05319305	0.11990144	0.40091824	0.05326683	0.14188649
5815	58.14	0.34241635	0.64955878	0.12499099	0.25745264	0.80460266	0.14077126	0.1667386	0.85811255	0.19741232	0.079901482	0.92347705	-0.00082615048	0.18032796	0.86873352	-0.19932014	0.26256354	0.80255457	-0.13844916	0.45794714	1.1717377	-0.00031604984	0.44255893	1.2439702	0.16616805	0.44117404	1.2412249	-0.15265627	0.44543906	1.0878645	0.0044067931	0.45435266	1.153288	-0.063179127	0.40936169	0.4505784	0.090691833	0.37819452	0.43309857	0.19669608	0.2647439	0.10684564	0.093000198	0.23802171	0.09452047	0.17076886	0.28897281	0.27037109	0.19878799	0.1821293	0.053247986	0.11992602	0.40091391	0.053273582	0.14190875
